<svg width="21" height="20" viewBox="0 0 21 20" fill="none" xmlns="http://www.w3.org/2000/svg">
<path d="M10.5 0C9.15418 0 7.82154 0.265079 6.57816 0.780103C5.33478 1.29513 4.20502 2.05001 3.25338 3.00165C1.33146 4.92357 0.251732 7.53026 0.251732 10.2483C0.251732 14.778 3.19299 18.6211 7.26155 19.9841C7.77396 20.0661 7.93793 19.7484 7.93793 19.4717C7.93793 19.236 7.93793 18.5904 7.93793 17.7398C5.09916 18.3547 4.49452 16.3665 4.49452 16.3665C4.0231 15.1777 3.35696 14.86 3.35696 14.86C2.42437 14.2246 3.4287 14.2451 3.4287 14.2451C4.45352 14.3168 4.99668 15.3007 4.99668 15.3007C5.88828 16.8584 7.39478 16.3972 7.97893 16.1513C8.07116 15.4851 8.33762 15.0342 8.62457 14.778C6.34945 14.5218 3.96161 13.6404 3.96161 9.73586C3.96161 8.5983 4.35104 7.6862 5.01718 6.95858C4.91469 6.70237 4.55601 5.63655 5.11966 4.25303C5.11966 4.25303 5.98052 3.97633 7.93793 5.29836C8.74755 5.07289 9.6289 4.96016 10.5 4.96016C11.3711 4.96016 12.2525 5.07289 13.0621 5.29836C15.0195 3.97633 15.8803 4.25303 15.8803 4.25303C16.444 5.63655 16.0853 6.70237 15.9828 6.95858C16.649 7.6862 17.0384 8.5983 17.0384 9.73586C17.0384 13.6507 14.6403 14.5115 12.3549 14.7678C12.7239 15.0855 13.0621 15.7106 13.0621 16.6637V19.4717C13.0621 19.7484 13.226 20.0764 13.7487 19.9841C17.8173 18.6109 20.7483 14.778 20.7483 10.2483C20.7483 8.90245 20.4832 7.5698 19.9682 6.32643C19.4531 5.08305 18.6983 3.95329 17.7466 3.00165C16.795 2.05001 15.6652 1.29513 14.4218 0.780103C13.1785 0.265079 11.8458 0 10.5 0Z" fill="white"/>
</svg>
