<svg width="36" height="20" viewBox="0 0 36 20" fill="none" xmlns="http://www.w3.org/2000/svg">
<path d="M19.326 19.9043C19.7891 19.8117 20.6228 19.6264 20.6228 18.5149C20.6228 18.5149 20.5301 15.7361 21.8269 15.3656C23.1237 14.9951 24.791 18.0518 26.5509 19.2559C27.8477 20.0896 28.8666 19.9969 28.8666 19.9969L33.5906 19.9043C33.5906 19.9043 35.9989 19.7191 34.8874 17.7739C34.7948 17.5886 34.0537 16.3845 31.2749 13.8835C28.4035 11.1047 28.8666 11.5678 32.2938 6.84384C34.4243 3.97239 35.3505 2.21246 35.0726 1.56407C34.7021 0.91568 33.2201 1.00831 33.2201 1.00831H27.9403C27.3846 1.00831 27.1067 1.10093 26.8288 1.56407C26.8288 1.56407 25.9952 3.87976 24.8836 5.73231C22.5679 9.71529 21.6417 9.90054 21.1785 9.62266C20.3449 9.15952 20.5301 7.3996 20.5301 6.19545C20.5301 2.02721 21.1785 0.54517 19.326 0.17466C18.1218 -0.0105949 13.861 -0.19585 12.5642 0.452542C11.9158 0.823052 11.5453 1.47144 11.8231 1.56407C12.101 1.56407 12.9347 1.6567 13.3978 2.21246C14.1388 3.41662 14.2315 9.15952 13.2126 9.71529C11.8231 10.7342 8.30331 3.97239 7.46966 1.74933C7.2844 1.19356 7.00652 1.10093 6.35813 0.91568H1.26362C0.707853 0.91568 -0.125794 1.00831 0.244716 2.11984C2.74566 7.30697 7.9328 19.9969 17.2882 19.9043H19.326Z" fill="white"/>
</svg>
