<svg width="31" height="20" viewBox="0 0 31 20" fill="none" xmlns="http://www.w3.org/2000/svg">
<path d="M29.6974 3.13655C29.5322 2.53798 29.2026 1.99071 28.7415 1.54962C28.2802 1.10852 27.7039 0.789105 27.0699 0.623381C24.7239 0.00610698 15.3243 0.00610682 15.3243 0.00610682C11.4049 -0.0381537 7.48655 0.158214 3.59436 0.593986C2.96019 0.771815 2.3847 1.09859 1.92223 1.54347C1.45977 1.98834 1.12558 2.53661 0.951219 3.13655C0.530719 5.40273 0.326589 7.69974 0.341263 9.99996C0.325582 12.3003 0.529721 14.5974 0.951219 16.8635C1.12199 17.4618 1.45546 18.0081 1.91887 18.4488C2.38228 18.8894 2.95967 19.2091 3.59436 19.3766C5.97164 19.9939 15.3243 19.9939 15.3243 19.9939C19.2489 20.0382 23.1725 19.8418 27.0699 19.406C27.7039 19.2403 28.2802 18.9209 28.7415 18.4798C29.2026 18.0387 29.5322 17.4914 29.6974 16.8929C30.1286 14.6278 30.338 12.3304 30.323 10.0294C30.3554 7.7181 30.1457 5.40935 29.6974 3.13655ZM12.3371 14.2769V5.72321L20.1571 9.99996L12.3371 14.2769Z" fill="white"/>
</svg>
